<?xml version="1.0" encoding="UTF-8"?><svg id="Calque_1" xmlns="http://www.w3.org/2000/svg" viewBox="0 0 326.57 340.53"><defs><style>.cls-1{fill:#1f3464;}</style></defs><path class="cls-1" d="M248.32,267.44c-.49-.19-.98-.36-1.45-.53-1.25-.42-2.49-.96-3.61-1.61-.86-.43-1.86-1.14-2.65-1.67-.48-.38-.98-.8-1.47-1.16-4.34-3.94-7.76-8.45-11.25-13.04-1.44-1.91-2.9-3.83-4.45-5.74-1.81-2.23-3.73-4.44-5.89-6.58-.54-.57-1.08-1.12-1.64-1.66-1.75-1.71-3.6-3.31-5.54-4.76-10.89-8.22-24.49-12.22-38.28-8.95-1.94.41-1.99,3.26-.09,3.76,3.74,1.05,7.34,1.96,10.74,3.22,6.49,2.33,12.15,5.63,17.34,9.8,1.94,1.54,3.81,3.2,5.64,5,.88.84,1.74,1.72,2.6,2.62,1.33,1.37,2.64,2.77,3.94,4.18,1.7,1.83,3.38,3.67,5.11,5.49,2.22,2.32,4.52,4.6,7.03,6.74,6.16,5.5,15.33,10.22,23.79,7.82.46-.12.86-.46,1.03-.94.3-.79-.09-1.68-.89-1.98Z"/><path class="cls-1" d="M104.76,249.63c.98-.68,1.95-1.38,2.92-2.08-25.24-22.8-34.35-63.41-19.95-101.86,12.79-34.14,40.68-57.41,70.59-62.61.99-1.53,2.01-3.05,3.04-4.52-40.76-.97-78.66,21.96-92.96,60.16-15.16,40.47.91,85.43,36.37,110.91Z"/><path class="cls-1" d="M219.42,97.17c-.02,1.03-.05,2.07-.1,3.16-.01.31-.03.63-.05.95,24.25,23.01,32.78,62.89,18.63,100.67-3.87,10.34-9.14,19.67-15.41,27.81.45.45.91.9,1.35,1.37,1.97,1.95,4.11,4.33,6.35,7.1,1.6,1.97,3.12,3.97,4.62,5.95.04.05.07.09.1.14,9.72-9.3,17.5-20.83,22.62-34.19,15.94-41.63.92-87.33-38.11-112.97Z"/><path class="cls-1" d="M210.86,90.6c-.11-2.77-.36-5.49-.79-8.09-.95-5.96-2.81-11.3-6.02-15.22-3.99-4.78-10.45-5.46-15.85-2.93-5.7,2.66-10.24,6.99-14.23,11.71-1.29,1.52-2.52,3.08-3.7,4.64-.66.89-1.31,1.79-1.94,2.7-1.58,2.24-3.08,4.52-4.52,6.84-1.66,2.65-3.23,5.35-4.72,8.1-7,12.85-12.34,26.6-16.7,40.5-8.16,25.99-16.35,67.15-9.57,99.08-2.35,2.18-4.75,4.3-7.19,6.36-1.89,1.61-3.8,3.17-5.74,4.69-3.57,2.83-7.23,5.54-10.98,8.12-2.01,1.39-4.04,2.74-6.1,4.06-.17.1-.34.21-.51.31-4.8,2.97-9.76,5.66-14.88,7.87-5.07,2.12-10.69,4.1-16.11,3.92-3.16-.14-3.52,4.34-.46,4.78,6.58.65,12.73-1.13,18.73-3.26,6.61-2.52,12.93-5.65,18.99-9.22,2.38-1.39,4.71-2.85,7.01-4.37,3.48-2.3,6.87-4.72,10.18-7.24,2.02-1.53,4.01-3.1,5.96-4.69,1.13-.92,2.25-1.84,3.36-2.77.72,2.24,1.53,4.43,2.44,6.54,1.72,3.98,3.79,7.69,6.25,11.07.69.95,1.42,1.88,2.17,2.78,2.64,3.04,5.92,5.72,9.57,7.67,2.82,1.52,5.86,2.61,9,3.1,6.26.77,12.75-.3,18.56-2.62.55-.21,1.09-.44,1.62-.68,5.02-2.33,9.46-5.49,13.4-9.18,2.56-2.39,6.05-6.42,8.22-9.2-.65-.65-2.64-2.65-3.03-2.99-.65.71-2.92,3.1-3.64,3.71-3.17,2.68-6.59,5-10.2,6.84-9.19,4.63-20.22,6.06-28.98.32-1.37-1.02-2.62-2.17-3.76-3.43-5.56-6.1-8.56-14.8-9.92-24.61,22.7-22.07,41.27-48.64,52.47-78.32,4.16-11.45,7.09-23.32,9.14-35.33.6-3.98,1.3-8.82,1.81-14.02.26-2.66.48-5.41.6-8.19.14-3.11.18-6.26.04-9.35ZM205.6,97.24c-.11,2.11-.29,4.2-.52,6.28-.06.52-.12,1.03-.19,1.55-1.43,11.14-4.47,22.01-7.99,32.67-5.53,16.66-12.49,32.87-21.53,47.94-8.46,13.94-18.31,27.13-29.41,39.15-.54-19.93,3.77-41.99,6.6-55.74,2.4-11.4,5.38-22.73,8.35-34.12,3.05-10.92,6.67-25.11,11.91-37.84,1.02-2.49,2.1-4.92,3.26-7.26,1.06-2.15,2.18-4.23,3.36-6.19,1.5-2.49,3.1-4.83,4.81-6.93,1.22-1.5,2.49-2.88,3.83-4.13,7.44-6.57,12.75-3.18,15.54,5.27.29.94.56,1.89.79,2.83.62,2.63,1,5.31,1.18,8.02.19,2.82.18,5.67.02,8.51Z"/></svg>